HIERARCHY
ROOT Hips
{
	OFFSET 0.000000 0.000000 0.000000 
	CHANNELS 6 Xposition Yposition Zposition Yrotation Zrotation Xrotation 
	JOINT Lumbar
	{
		OFFSET 0.000000 0.000000 0.000000 
		CHANNELS 3 Zrotation Xrotation Yrotation
		JOINT Neck
		{
			OFFSET 0.000000 0.445665 0.000000 
			CHANNELS 3 Zrotation Xrotation Yrotation
			End Site
			{
				OFFSET 0.000000 0.227535 0.000000 
			}
		}
		JOINT RightShoulder
		{
			OFFSET 0.019635 0.377685 0.194865 
			CHANNELS 3 Zrotation Xrotation Yrotation
			JOINT RightElbow
			{
				OFFSET 0.000000 -0.243375 0.000000 
				CHANNELS 2 Zrotation Yrotation
				JOINT RightWrist
				{
					OFFSET 0.000000 -0.264825 0.000000 
					CHANNELS 2 Zrotation Xrotation
					End Site
					{
						OFFSET 0.006600 -0.176220 0.000990 
					}
				}
			}
		}
		JOINT LeftShoulder
		{
			OFFSET 0.019635 0.377685 -0.194865 
			CHANNELS 3 Zrotation Xrotation Yrotation
			JOINT LeftElbow
			{
				OFFSET 0.000000 -0.243375 0.000000 
				CHANNELS 2 Zrotation Yrotation
				JOINT LeftWrist
				{
					OFFSET 0.000000 -0.264825 0.000000 
					CHANNELS 2 Zrotation Xrotation
					End Site
					{
						OFFSET 0.006600 -0.176220 -0.000990 
					}
				}
			}
		}
	}
	JOINT RightHip
	{
		OFFSET 0.052140 -0.069960 0.075570 
		CHANNELS 3 Zrotation Xrotation Yrotation
		JOINT RightKnee
		{
			OFFSET 0.000000 -0.402270 0.000000 
			CHANNELS 1 Zrotation
			JOINT RightAnkle
			{
				OFFSET 0.000000 -0.404085 0.000000 
				CHANNELS 3 Zrotation Xrotation Yrotation
				End Site
				{
					OFFSET 0.204105 -0.089430 0.008415 
				}
			}
		}
	}
	JOINT LeftHip
	{
		OFFSET 0.052140 -0.069960 -0.075570 
		CHANNELS 3 Zrotation Xrotation Yrotation
		JOINT LeftKnee
		{
			OFFSET 0.000000 -0.402270 0.000000 
			CHANNELS 1 Zrotation
			JOINT LeftAnkle
			{
				OFFSET 0.000000 -0.404085 0.000000 
				CHANNELS 3 Zrotation Xrotation Yrotation
				End Site
				{
					OFFSET 0.204105 -0.089430 -0.008415 
				}
			}
		}
	}
}
MOTION
Frames: 19
Frame Time: 0.02
-0.00012 0.0001 -0.00017 15.68353 -34.61961 -1.96466 56.16348 2.23262 3.54925 -7.12679 -6.88773 -1.2755 139.74208 -72.83269 -87.08055 12.79424 104.23521 17.26896 2.93142 122.34085 76.17998 87.14327 8.6744 -97.62242 13.36782 -1.6242 51.07256 -0.2559 -3.95171 -19.16344 -7.95309 -4.00564 -4.25988 54.49296 2.18331 5.98126 -24.14605 -8.80031 4.12111 4.39069
-4e-05 9e-05 -9e-05 15.78948 -34.62386 -1.97826 56.1263 2.20215 3.53529 -7.06722 -6.86414 -1.27595 139.13019 -72.7939 -87.08604 12.77787 104.17233 17.0321 2.68702 122.07996 76.09177 87.14302 8.642 -97.54593 13.28568 -1.45469 51.05072 -0.32378 -4.35809 -19.16365 -7.92492 -3.98465 -4.24721 54.48908 2.27681 6.42857 -24.15075 -8.76767 4.09772 4.37054
3e-05 8e-05 -1e-05 15.89517 -34.62813 -1.99183 56.08923 2.17176 3.5214 -7.0078 -6.84055 -1.27641 138.51983 -72.75521 -87.09151 12.76154 104.10965 16.79584 2.44326 121.81969 76.00382 87.14277 8.60964 -97.46968 13.20366 -1.2857 51.02893 -0.39159 -4.76411 -19.16385 -7.89678 -3.96366 -4.23454 54.48524 2.37008 6.87469 -24.15543 -8.73508 4.07436 4.35043
0.00011 8e-05 6e-05 16.00081 -34.63238 -2.00539 56.05217 2.14138 3.50748 -6.9484 -6.81701 -1.27686 137.90975 -72.71654 -87.09698 12.74522 104.04697 16.55969 2.19959 121.55958 75.91587 87.14252 8.57732 -97.39343 13.12176 -1.11672 51.00715 -0.45929 -5.16941 -19.16405 -7.86868 -3.94273 -4.2219 54.48137 2.46331 7.32064 -24.16011 -8.70253 4.05104 4.33034
0.00018 7e-05 0.00014 16.10666 -34.63659 -2.01897 56.01502 2.11095 3.49347 -6.88887 -6.7935 -1.27731 137.29831 -72.67776 -87.10246 12.72887 103.98407 16.32297 1.95532 121.2989 75.82768 87.14227 8.54499 -97.31691 13.03975 -0.9472 50.98532 -0.527 -5.57468 -19.16427 -7.8406 -3.92181 -4.20927 54.47747 2.55676 7.76773 -24.16482 -8.66994 4.02769 4.3102
0.00026 7e-05 0.00022 16.21203 -34.641 -2.03254 55.97811 2.08063 3.47985 -6.82967 -6.76974 -1.27777 136.69025 -72.63929 -87.10791 12.71256 103.92186 16.08769 1.71265 121.03951 75.74025 87.14203 8.51258 -97.24121 12.95769 -0.77931 50.96363 -0.59502 -5.98222 -19.16444 -7.81234 -3.90067 -4.19652 54.47376 2.64964 8.21181 -24.16945 -8.63737 4.00431 4.29016
0.00034 6e-05 0.0003 16.31824 -34.645 -2.04611 55.94075 2.05013 3.46545 -6.76987 -6.74651 -1.27822 136.076 -72.60026 -87.11342 12.69621 103.85837 15.8498 1.46703 120.77784 75.65137 87.14176 8.48033 -97.16401 12.87591 -0.60839 50.94167 -0.66235 -6.38489 -19.16471 -7.78444 -3.88001 -4.18403 54.46965 2.74355 8.66138 -24.17422 -8.60479 3.98103 4.26996
0.00041 6e-05 0.00038 16.42368 -34.64939 -2.05967 55.9038 2.01979 3.45177 -6.71064 -6.72279 -1.27867 135.4676 -72.56171 -87.11888 12.67988 103.79598 15.61427 1.22411 120.51823 75.56386 87.14152 8.44799 -97.08808 12.79373 -0.44016 50.91998 -0.73028 -6.79177 -19.16488 -7.75624 -3.85892 -4.1713 54.46592 2.83654 9.10601 -24.17887 -8.57222 3.95766 4.2499
0.00049 5e-05 0.00046 16.52822 -34.65422 -2.07327 55.86735 1.98964 3.43896 -6.652 -6.69845 -1.27913 134.86544 -72.52383 -87.12427 12.6636 103.73523 15.38169 0.98445 120.26118 75.47786 87.1413 8.41531 -97.01412 12.71157 -0.27558 50.89853 -0.79917 -7.20527 -19.16494 -7.72755 -3.83723 -4.15823 54.46262 2.92835 9.54433 -24.18337 -8.53963 3.93415 4.23001
0.00056 4e-05 0.00054 16.6381 -34.6564 -2.08678 55.82803 1.95835 3.42115 -6.58964 -6.67762 -1.27955 134.22463 -72.48235 -87.13004 12.64711 103.66592 15.13235 0.72592 119.98949 75.38264 87.14095 8.3839 -96.93006 12.63083 -0.09106 50.87544 -0.86321 -7.5851 -19.16566 -7.70132 -3.81875 -4.14699 54.45674 3.02679 10.01816 -24.18872 -8.50708 3.91136 4.20913
0.00064 4e-05 0.00061 16.73658 -34.66424 -2.1004 55.7948 1.92952 3.41387 -6.53535 -6.64945 -1.28006 133.66722 -72.44834 -87.13499 12.63102 103.61412 14.91824 0.5073 119.74871 75.30722 87.14087 8.35022 -96.86653 12.54611 0.05207 50.85598 -0.93703 -8.03302 -19.16499 -7.67011 -3.79369 -4.13201 54.45637 3.1113 10.41751 -24.19226 -8.47448 3.88708 4.19035
0.00076 6e-05 0.00066 16.80452 -34.68722 -2.11497 55.77799 1.90716 3.4359 -6.50146 -6.60025 -1.28084 133.32547 -72.43598 -87.13776 12.61648 103.61551 14.80232 0.39834 119.59321 75.28394 87.14163 8.30699 -96.86518 12.45799 0.07489 50.84503 -1.04175 -8.69453 -19.16048 -7.62328 -3.74871 -4.10561 54.4708 3.15683 10.60678 -24.19078 -8.44129 3.85835 4.17747
0.00088 8e-05 0.00069 16.86087 -34.71597 -2.12952 55.76737 1.88731 3.46841 -6.47599 -6.54387 -1.28171 133.07001 -72.43092 -87.13968 12.60226 103.63357 14.72131 0.32933 119.46873 75.28094 87.14265 8.26212 -96.88252 12.3642 0.05742 50.83797 -1.15554 -9.41956 -19.15457 -7.5718 -3.69748 -4.07568 54.49081 3.18848 10.72217 -24.18748 -8.40812 3.82818 4.16669
0.001 0.0001 0.00072 16.92204 -34.74235 -2.14368 55.75409 1.86649 3.49591 -6.44776 -6.49131 -1.28253 132.78356 -72.4218 -87.14194 12.58764 103.64061 14.62351 0.2421 119.32968 75.27006 87.1435 8.22013 -96.88855 12.26843 0.06276 50.83006 -1.2625 -10.09796 -19.14934 -7.52374 -3.65034 -4.04813 54.50848 3.22701 10.87523 -24.18503 -8.37521 3.79886 4.15489
0.00112 0.00012 0.00077 16.98508 -34.76764 -2.15955 55.74012 1.84497 3.52461 -6.41498 -6.43626 -1.28338 132.46218 -72.41583 -87.1444 12.57417 103.66207 14.53034 0.15564 119.19244 75.25355 87.14457 8.169 -96.90995 12.193 0.04891 50.81834 -1.38086 -10.85114 -19.14396 -7.47018 -3.59793 -4.0173 54.52534 3.26324 11.01141 -24.18246 -8.34112 3.76867 4.14336
0.00124 0.00014 0.00079 17.04146 -34.79659 -2.17182 55.72913 1.8255 3.55313 -6.39376 -6.38483 -1.28418 132.2345 -72.405 -87.14622 12.5583 103.65761 14.43497 0.07652 119.05909 75.25362 87.14524 8.13669 -96.89943 12.07248 0.06561 50.81541 -1.47771 -11.46406 -19.13852 -7.42694 -3.55499 -3.99244 54.5452 3.30077 11.16452 -24.17972 -8.30953 3.73999 4.13178
0.00134 0.00019 0.00074 17.08246 -34.83427 -2.17442 55.72402 1.81106 3.58008 -6.40155 -6.34402 -1.28476 132.23968 -72.37928 -87.14662 12.53649 103.57569 14.33184 0.01241 118.92594 75.29397 87.14468 8.1552 -96.83469 11.84061 0.17594 50.83641 -1.51189 -11.66976 -19.1335 -7.41366 -3.53996 -3.98516 54.57216 3.34698 11.38873 -24.17699 -8.28467 3.71558 4.11933
0.00144 0.00024 0.00066 17.11709 -34.87543 -2.17336 55.72185 1.79859 3.60624 -6.42086 -6.30728 -1.28528 132.33686 -72.3484 -87.14638 12.51213 103.46717 14.22394 -0.04658 118.79602 75.35038 87.14373 8.19295 -96.731 11.56143 0.31878 50.86601 -1.52424 -11.73275 -19.12844 -7.41087 -3.53464 -3.98398 54.60189 3.39464 11.63128 -24.17416 -8.26237 3.6928 4.10679
0.00154 0.00029 0.00059 17.15461 -34.91501 -2.1738 55.71884 1.78522 3.63177 -6.43546 -6.26944 -1.28584 132.39524 -72.31964 -87.14635 12.48842 103.37234 14.11376 -0.11082 118.6667 75.39984 87.14303 8.22299 -96.61862 11.29606 0.44675 50.8913 -1.54728 -11.86415 -19.12325 -7.40305 -3.52471 -3.97986 54.63026 3.44052 11.86142 -24.17137 -8.239 3.66942 4.0944
